<?xml version="1.0" encoding="utf-8"?>
<!-- Generator: Adobe Illustrator 19.1.0, SVG Export Plug-In . SVG Version: 6.00 Build 0)  -->
<svg version="1.1" id="Layer_3" xmlns="http://www.w3.org/2000/svg" xmlns:xlink="http://www.w3.org/1999/xlink" x="0px" y="0px"
	 viewBox="0 0 534 498" style="enable-background:new 0 0 534 498;" xml:space="preserve">
<style type="text/css">
	.st0{fill:none;stroke:#D32929;stroke-width:12;stroke-miterlimit:10;}
</style>
<polyline class="st0" points="71.3,355.5 101.3,382.5 380.2,382.5 426.7,355.5 "/>
<polyline class="st0" points="133.3,417 391.2,417 446.7,385.5 "/>
<path class="st0" d="M158.3,316c0,0,91.5,66,181.5,0"/>
<path class="st0" d="M144,273c0,0,91.5,61.5,210,0"/>
<path class="st0" d="M184.5,199.6c0,0-232.5,67.9,184,43.4"/>
<path class="st0" d="M374.5,212.5c0,0,123,21.9,0,79.9"/>
<path class="st0" d="M234.8,200c0,0-30.7-35,7.3-51.2s0-60.2,0-60.2"/>
<path class="st0" d="M277.8,199.6c0,0-30.7-35,7.3-51.2s0-60.2,0-60.2"/>
</svg>
