<?xml version="1.0" encoding="utf-8"?>
<!-- Generator: Adobe Illustrator 19.1.0, SVG Export Plug-In . SVG Version: 6.00 Build 0)  -->
<svg version="1.1" id="Layer_3" xmlns="http://www.w3.org/2000/svg" xmlns:xlink="http://www.w3.org/1999/xlink" x="0px" y="0px"
	 viewBox="0 0 1064 1088" style="enable-background:new 0 0 1064 1088;" xml:space="preserve">
<style type="text/css">
	.st0{fill:none;stroke:#D32929;stroke-width:20;stroke-miterlimit:10;}
	.st1{fill:#D32929;}
</style>
<path class="st0" d="M817,296.2h98c0,0,133.9,6,133.9,252S903,790.2,903,790.2l-366,0v40h246l-2,132c0,0,0,97.4-244,97.4
	S291,952.2,291,952.2V678c0,0,6-113.7,136-113.7s250,1,250,1s140,4,140-151C817,296.2,817,296.2,817,296.2z"/>
<circle class="st1" cx="675" cy="931" r="44"/>
<circle class="st1" cx="392" cy="156" r="44"/>
<path class="st0" d="M256,798.5h-98c0,0-133.9-6-133.9-252s145.9-242,145.9-242l366,0v-40H290l2-132c0,0,0-97.4,244-97.4
	s246,107.4,246,107.4v274.3c0,0-6,113.7-136,113.7s-250-1-250-1s-140-4-140,151C256,798.5,256,798.5,256,798.5z"/>
<line class="st0" x1="782.1" y1="138.6" x2="782.1" y2="419.6"/>
</svg>
