<?xml version="1.0" standalone="no"?>
<!DOCTYPE svg PUBLIC "-//W3C//DTD SVG 20010904//EN"
 "http://www.w3.org/TR/2001/REC-SVG-20010904/DTD/svg10.dtd">
<svg version="1.0" xmlns="http://www.w3.org/2000/svg"
 width="270.000000pt" height="270.000000pt" viewBox="0 0 270.000000 270.000000"
 preserveAspectRatio="xMidYMid meet">
<metadata>
Created by potrace 1.11, written by Peter Selinger 2001-2013
</metadata>
<g transform="translate(0.000000,270.000000) scale(0.100000,-0.100000)"
fill="#000000" stroke="none">
<path d="M1028 2021 c-307 -136 -560 -250 -563 -253 -5 -5 542 -1257 579
-1324 11 -21 27 -14 579 230 399 176 567 255 566 266 0 8 -24 67 -53 130 -35
77 -58 114 -67 112 -8 -2 -187 -80 -399 -174 -212 -94 -390 -172 -396 -175 -9
-3 -140 275 -132 282 2 1 159 71 351 156 247 109 347 157 346 168 -1 27 -105
246 -116 244 -5 -1 -164 -70 -352 -153 -189 -83 -346 -149 -349 -145 -15 14
-120 260 -114 267 4 3 184 84 400 179 215 95 392 178 392 184 0 13 -99 237
-108 246 -4 4 -258 -104 -564 -240z"/>
</g>
</svg>
