<?xml version="1.0" encoding="utf-8"?>
<!-- Generator: Adobe Illustrator 19.1.0, SVG Export Plug-In . SVG Version: 6.00 Build 0)  -->
<svg version="1.1" id="Capa_1" xmlns="http://www.w3.org/2000/svg" xmlns:xlink="http://www.w3.org/1999/xlink" x="0px" y="0px"
	 viewBox="-49 141 512 512" style="enable-background:new -49 141 512 512;" xml:space="preserve">
<style type="text/css">
	.st0{fill:#FFFFFF;}
</style>
<g>
	<polygon class="st0" points="207,366.4 91.2,294.9 70.8,294.9 70.8,499.1 104.9,499.1 104.9,349.3 207,414 309.1,349.3 
		309.1,499.1 343.2,499.1 343.2,294.9 322.8,294.9 	"/>
	<path class="st0" d="M207,141C65.6,141-49,255.6-49,397S65.6,653,207,653s256-114.6,256-256S348.4,141,207,141z M377.2,499.1
		c0,18.7-15.3,34-34,34H70.8c-18.7,0-34-15.3-34-34V294.9c0-18.7,15.3-34,34-34h272.4c18.7,0,34,15.3,34,34V499.1z"/>
</g>
</svg>
