<?xml version="1.0" encoding="utf-8"?>
<!-- Generator: Adobe Illustrator 19.1.0, SVG Export Plug-In . SVG Version: 6.00 Build 0)  -->
<svg version="1.1" id="Capa_1" xmlns="http://www.w3.org/2000/svg" xmlns:xlink="http://www.w3.org/1999/xlink" x="0px" y="0px"
	 viewBox="-249 340.8 112.2 112.2" style="enable-background:new -249 340.8 112.2 112.2;" xml:space="preserve">
<style type="text/css">
	.st0{fill:#007AB9;}
</style>
<g>
	<path class="st0" d="M-192.9,340.8c-31,0-56.1,25.1-56.1,56.1s25.1,56.1,56.1,56.1c31,0,56.1-25.1,56.1-56.1
		S-161.9,340.8-192.9,340.8z M-207.7,424.5h-13.4v-40.3h13.4V424.5z M-214.4,378.7L-214.4,378.7c-4.6,0-7.5-3.1-7.5-7c0-4,3-7,7.6-7
		c4.6,0,7.4,3,7.5,7C-206.8,375.6-209.8,378.7-214.4,378.7z M-159.4,424.5h-13.4V403c0-5.4-1.9-9.1-6.8-9.1c-3.7,0-5.9,2.5-6.9,4.9
		c-0.4,0.9-0.4,2.1-0.4,3.3v22.5h-13.4c0,0,0.2-36.5,0-40.3h13.4v5.7c1.8-2.7,5-6.7,12.1-6.7c8.8,0,15.4,5.8,15.4,18.1V424.5z"/>
	<path class="st0" d="M-186.9,390.1v-0.1C-186.9,390-187,390-186.9,390.1L-186.9,390.1z"/>
</g>
</svg>
